<?xml version="1.0" encoding="utf-8"?>
<!-- Generator: Adobe Illustrator 22.1.0, SVG Export Plug-In . SVG Version: 6.00 Build 0)  -->
<svg version="1.1" id="Layer_1" xmlns="http://www.w3.org/2000/svg" xmlns:xlink="http://www.w3.org/1999/xlink" x="0px" y="0px"
	 viewBox="0 0 254.6 53.1" style="enable-background:new 0 0 254.6 53.1;" xml:space="preserve">
<style type="text/css">
	.st0{fill:#FFFFFF;}
	.st1{fill:#1676CB;}
	.st2{fill:#0F6CB2;}
</style>
<title>Mesa de trabajo 74</title>
<g id="Artwork_4">
	<path class="st0" d="M3.9,19.2c0.1-0.6-0.4-1.2-1-1.3c-0.1,0-0.2,0-0.3,0H0.3v-6.2h7c2.7,0,3.9,1.2,3.9,3.9v18
		c-0.1,0.6,0.4,1.2,1,1.3c0.1,0,0.2,0,0.3,0h2.9v6.2H7.8c-2.7,0-3.9-1.2-3.9-3.9V19.2z"/>
	<path class="st0" d="M30,11c6.8,0,9.1,4.1,9.1,4.1h0.1v-0.8c0-1.3,0.9-2.7,3.2-2.7h6.8v6.2H47c-0.6-0.1-1.2,0.4-1.3,1
		c0,0.1,0,0.1,0,0.2v20.2c0,10.1-7.8,13.9-15.5,13.9c-3.6,0-7.2-0.9-10.4-2.5l2.2-5.8c2.5,1.3,5.3,1.9,8.1,2c4.4,0,8.3-1.9,8.3-7.2
		v-1.4c0-0.7,0.1-1.6,0.1-1.6h-0.1c-1.7,2.5-4.3,3.8-8.2,3.8c-8.4,0-13.2-6.8-13.2-14.9S21.6,11,30,11z M38.6,25.7
		c0-6.7-3.3-8.5-7.3-8.5c-4.4,0-6.9,3.2-6.9,8.2c0,5.1,2.6,8.9,7.3,8.9C35.3,34.3,38.6,32.3,38.6,25.7L38.6,25.7z"/>
	<path class="st0" d="M56.1,19.2c0.1-0.6-0.4-1.2-1-1.3c-0.1,0-0.2,0-0.3,0h-2.3v-6.2h7c2.7,0,3.9,1.2,3.9,3.9v13.6
		c0,3.6,0.9,6,4.5,6c5.3,0,8.3-4.7,8.3-9.9V11.7h7.3v22c-0.1,0.6,0.4,1.2,1,1.3c0.1,0,0.2,0,0.3,0H87v6.2h-6.7
		c-2.5,0-3.9-1.2-3.9-3.3V37c0-0.7,0.1-1.3,0.1-1.3h-0.1c-1.9,3.8-5.9,6.2-10.2,6.1c-6.3,0-10.1-3.2-10.1-11.2L56.1,19.2z"/>
	<path class="st0" d="M107.6,22.6h0.9v-0.2c0-4.2-1.7-5.8-5.4-5.8c-1.3,0-3.9,0.3-3.9,2v1.5h-6.8V17c0-5.5,7.7-6.1,10.8-6.1
		c9.8,0,12.7,5.1,12.7,11.7v11c-0.1,0.6,0.4,1.2,1,1.3c0.1,0,0.2,0,0.2,0h2.3v6.2h-6.6c-2.7,0-3.8-1.5-3.8-3.2c0-0.4,0-0.8,0.1-1.3
		H109c-1.7,3.3-5.2,5.3-8.9,5.2c-5.2,0-10-3.3-10-9.2C90.1,23.4,102.8,22.6,107.6,22.6z M101.9,36.1c3.9,0,6.7-4.1,6.7-7.7v-0.7
		h-1.3c-3.8,0-9.9,0.5-9.9,4.6C97.5,34.2,98.9,36.1,101.9,36.1z"/>
	<path class="st0" d="M125.3,19.2c0.1-0.6-0.4-1.2-1-1.3c-0.1,0-0.2,0-0.3,0h-2.3v-6.2h6.7c2.6,0,3.9,1.2,3.9,3.3v0.9
		c0,0.4,0,0.9-0.1,1.3h0.1c2-3.9,6-6.2,10.4-6.1c6.5,0,10.3,3.4,10.3,11.2v11.5c-0.1,0.6,0.4,1.2,1,1.3c0.1,0,0.2,0,0.2,0h2.3v6.2
		h-7c-2.8,0-3.9-1.2-3.9-3.9V23.7c0-3.6-0.9-6-4.6-6c-3.7,0-7,2.4-7.9,6c-0.4,1.3-0.6,2.6-0.6,3.9v13.5h-7.3L125.3,19.2z"/>
	<path class="st0" d="M176.9,22.6h0.9v-0.2c0-4.2-1.7-5.8-5.4-5.8c-1.3,0-3.9,0.3-3.9,2v1.5h-6.8V17c0-5.5,7.7-6.1,10.8-6.1
		c9.8,0,12.7,5.1,12.7,11.7v11c-0.1,0.6,0.4,1.2,1,1.3c0.1,0,0.2,0,0.2,0h2.3v6.2h-6.6c-2.7,0-3.8-1.5-3.8-3.2c0-0.4,0-0.8,0.1-1.3
		h-0.1c-1.7,3.3-5.2,5.3-8.9,5.2c-5.2,0-10-3.3-10-9.2C159.4,23.4,172.1,22.6,176.9,22.6z M171.3,36.1c3.9,0,6.7-4.1,6.7-7.7v-0.7
		h-1.3c-3.8,0-9.9,0.5-9.9,4.6C166.8,34.2,168.3,36.1,171.3,36.1L171.3,36.1z"/>
	<path class="st0" d="M235.6,26.2l4.3-6.4l3.7-5.4c1.3-2.2,2.1-2.8,4.7-2.8h4.5v6.2h-2.7c-0.9-0.1-1.8,0.3-2.3,1l-4.2,6.6l-3.9,6.7
		l-5.6,9h-8.1L235.6,26.2z"/>
	<path class="st1" d="M235.6,26.2l-4.8-7.3c-0.6-0.9-1-1-2.3-1h-15.2v-6.2h18.2c2.4,0,3.5,0.5,4.8,2.8l18,26.6h-8.1L235.6,26.2z"/>
	<path class="st0" d="M213.8,2.7h5.9c0.3,0,0.5,0.2,0.5,0.5V8c0,0.3-0.2,0.5-0.5,0.5h-5.9c-0.3,0-0.5-0.2-0.5-0.5V3.1
		C213.3,2.9,213.5,2.7,213.8,2.7z"/>
	<path class="st0" d="M4.6,2.7h5.9c0.3,0,0.5,0.2,0.5,0.5V8c0,0.3-0.2,0.5-0.5,0.5H4.6C4.3,8.5,4.1,8.3,4.1,8V3.1
		C4.1,2.9,4.3,2.7,4.6,2.7z"/>
	<path class="st0" d="M193.7,17.5H190v-5.8h3.6v-0.9c0-9.6,7.9-10.9,12-10.9c0.8,0,1.7,0,2.5,0.2v6.2c-0.6-0.1-1.1-0.1-1.7-0.1
		c-2.1,0-5.5,0.6-5.5,4.9v0.6h15.6c2.7,0,3.9,1.2,3.9,3.9v18c-0.1,0.6,0.4,1.2,1,1.3c0.1,0,0.2,0,0.3,0h2.2v6.2h-6.9
		c-2.8,0-3.9-1.2-3.9-3.9V18.8c0.1-0.6-0.4-1.2-1-1.3c-0.1,0-0.2,0-0.2,0H201v23.6h-7.3L193.7,17.5z"/>
	<polygon class="st2" points="243.8,25.4 243.8,25.4 239.9,19.8 239.9,19.8 235.6,26.2 239.8,32.1 239.8,32.1 	"/>
</g>
</svg>
