<?xml version="1.0" encoding="utf-8"?>
<!-- Generator: Adobe Illustrator 22.1.0, SVG Export Plug-In . SVG Version: 6.00 Build 0)  -->
<svg version="1.1" id="Layer_1" xmlns="http://www.w3.org/2000/svg" xmlns:xlink="http://www.w3.org/1999/xlink" x="0px" y="0px"
	 viewBox="0 0 254.6 53.1" style="enable-background:new 0 0 254.6 53.1;" xml:space="preserve">
<style type="text/css">
	.st0{fill:#FFFFFF;}
</style>
<title>Mesa de trabajo 74</title>
<g>
	<path class="st0" d="M32.5,16.2c-5.7,9.7-10.1,19.7-14.2,30.1c-0.1,0.3-0.1,0.6-0.3,0.8c-0.1,0.3-0.2,0.4-0.5,0.3
		c-0.4-0.1-1.1-0.7-1.5-1.5c-0.7-0.9-0.7-1.7-0.9-2.7c-1-8.4,0.2-16.6,1.2-26.2c-4.1,11.1-8.1,27.6-8.4,33c0,0.6-0.2,0.8-0.9,0.8
		c-1.8,0-4.8-1.8-4.7-3.4C2.9,36.6,9.6,11.5,13.4,5c0.6-1,1.1-1.5,1.5-1.5c1.5,0,6.3,2.2,6.3,3.3c-0.1,0.3-0.2,0.4-0.4,0.8
		c-2.1,9.9-2.7,19.8-2.3,28.6c4.8-10.5,10.3-20.5,17-30.1c0.5-0.7,1.9-2.6,2.9-2.6c1.5,0,5.7,1.9,5.7,3c0,0.1-0.1,0.3-0.2,0.4
		c-0.3,0.4-0.7,0.7-0.9,1.2C38.8,15.9,33,42.9,33,49.9c0,0.6-0.2,0.9-0.9,0.9c-1.8,0-4.8-1.6-4.8-3.2C27.3,40.3,29.8,26.4,32.5,16.2
		z"/>
	<path class="st0" d="M51.1,43c0.1-0.1,0.1-0.3,0.1-0.5c-2.1,4.5-4.9,8.3-8.2,8.3c-2.9,0-4.5-1.9-4.8-4.5c-1-8,3.1-20.7,10.4-24.5
		c2.3-1.3,4.9,0.4,7.5,1.8c0.1-0.2,0.3-0.7,0.4-1c0.3-0.6,0.7-1,1.1-1c1.4,0,3.8,1.3,4.7,2.1c0.8,0.6-0.1,1.5-0.4,2.3
		c-2.4,6.4-4.2,14.9-5.2,20.3c-0.2,1.1,0.4,1.1,1,0.5c4.5-4.5,7.5-13,9.5-18c0.5-1.2,2.3-0.5,1.9,0.7c-1.9,4.9-8,21.3-14.3,21.3
		c-2.6,0-4.2-2.6-4-5C50.9,44.9,50.9,44,51.1,43z M54.5,27.5c0.2-0.7,0.4-1.3,0.7-1.9c-0.4-0.6-1-1-1.8-1c-5.1,0-8.9,12.6-9.4,18.9
		c-0.1,0.8-0.2,3.4,1,3.4C48.6,47,53.4,31,54.5,27.5z"/>
	<path class="st0" d="M68.7,22.5c0.2-0.6,0.7-1,1-1c1.5,0,3.9,1.3,4.8,2.1c0.7,0.6-0.1,1.5-0.4,2.3c-1.3,3.5-2.6,7.7-3.6,11.6
		C73.1,32,77,25,80.5,22.1c0.4-0.4,0.9-0.5,1.4-0.5c0.8,0,3.4,0.8,4.5,1.9c1,1,0.4,1.7-0.4,2.3c-2.5,2.1-3.7,5.8-3.9,8.4
		c-0.1,1.8,0.6,2.6,1.4,2.6c3.1,0,6-5.9,7.4-8.2c0.7-1.1,2.4-0.1,1.8,1.1c-1.6,2.6-4.7,8.4-8.2,9.6c-2.5,1-7.1-1.3-7.5-4.5
		c-0.2-2.2,0.9-5.6,2-7.8c0.3-0.7,0.1-0.5-0.2-0.1C74,32.4,68.4,45.2,68,50c0,0.7-0.4,0.8-0.9,0.8c-1.8,0-4.6-2-4.6-3.5
		C63.2,39.6,65.6,29.6,68.7,22.5z"/>
	<path class="st0" d="M106,24.7c0-5.3,7.4-9,7.4-13.6c0-1.7-0.7-3.4-2.9-3.4c-5.5,0-13.3,7.9-13.3,14.3c0,6.2,7.5,7.2,11.9,9.4
		c3.7,1.8,6.3,5,5.4,9.4C112.8,49,103.8,53.4,96,53.3c-6.4,0-12.3-4.2-10.8-11.3c0.4-1.6,1-3.2,2.1-4.6c0.8-1.1,2.7-3.2,4.3-3.2
		c2,0,4.7,2.5,5.2,4.2c0.1,0.4,0.2,1.1-0.4,1.1c-3,0-6.6,3.1-6.6,6.2c0,2.6,3,3.4,5.2,3.4c4.3,0,12.1-2.7,12.1-8.1
		c0-1.7-1-3.3-2.9-4.5c-5.9-3.8-13.6-4.7-14.7-13c-1.2-9.4,8.4-20,18.7-20c4.1,0,7.3,1.7,8.6,4.8c1.1,0.9,1.7,2.2,1.7,3.3
		c0,5.2-7.4,11.5-7.4,16.7c0,0.3-0.1,0.5-0.4,0.5C109,28.8,106,26.9,106,24.7z"/>
	<path class="st0" d="M127.2,3.6c1.4,0,6.4,1.9,6.4,3c0,0.1-0.1,0.3-0.1,0.4c-0.4,0.4-0.7,0.7-1,1.2c-3.7,6.6-8.4,27.1-9.7,37.4
		c-0.1,1.6,0.1,1.9,1.2,0.8c4.2-4.5,7.5-12.8,9.3-17.7c0.5-1.2,2.4-0.5,1.9,0.7c-1.9,4.9-8.3,21.3-14.6,21.3c-4,0-4-4.3-3.7-7.2
		C118,29.5,124.3,3.6,127.2,3.6z"/>
	<path class="st0" d="M141.2,21.3c2.8,0,7.7,3.7,7.7,7c0,6.8-8,12.1-13.6,12.1c-0.1,3.9,1,7,4.4,7c5.9,0,11.3-12,13.8-18.7
		c0.4-1.2,2.3-0.4,1.8,0.8c-2.6,7.2-8.5,21.3-16.8,21.3C120.8,50.8,130.7,21.3,141.2,21.3z M135.4,38.6c4,0,8.4-5.9,8.4-11.8
		c0-1.5-1.2-2.1-2.3-1.2C138.5,27.9,136,33.7,135.4,38.6z"/>
	<path class="st0" d="M149.6,43c1.1-6.9,3.2-14.7,5.6-20.5c0.3-0.6,0.7-1,1.1-1c1.4,0,3.8,1.3,4.7,2.1c0.8,0.6-0.1,1.5-0.3,2.3
		c-2.5,6.4-4.6,14.9-5.6,20.3c-0.2,1.1,0.4,1.1,1,0.5c4.5-4.5,7.8-13,9.7-18c0.5-1.2,2.3-0.5,1.9,0.7c-1.9,4.9-8.3,21.3-14.6,21.3
		c-2.6,0-4.2-2.6-4-5C149.4,44.9,149.5,44,149.6,43z M162.8,6.3c0.8,0.1,2.9,1,4.3,2c1.1,0.7,1.1,1.7,0.3,3c-1.3,2.2-5.3,8.1-7,8.2
		c-4.2,0.1-0.3-9.4,0.7-11.1C161.7,7.1,162.3,6.3,162.8,6.3z"/>
	<path class="st0" d="M167.6,22.5c0.2-0.6,0.7-1,1-1c1.5,0,3.8,1.3,4.8,2.1c0.7,0.6-0.1,1.5-0.4,2.3c-1.3,3.5-2.6,7.7-3.6,11.6
		c2.6-5.6,6.5-12.6,10-15.5c0.4-0.4,0.9-0.5,1.4-0.5c0.9,0,3.7,0.9,4.6,2c0.4,0.6,0.3,1,0.1,1.5c-1.6,4-2.9,8.4-4,12.5
		c2.6-5.6,6.5-12.6,10-15.5c0.4-0.4,0.9-0.5,1.4-0.5c1.1,0,5,1.3,5,2.7c0,0.3-0.1,0.5-0.2,0.8c-0.4,0.6-0.6,1.2-0.8,1.8
		c-2.3,6.3-4.3,14.2-5.2,19.3c-0.2,1.1,0.3,1.2,1.1,0.5c4.4-4.5,7.8-13,9.7-18c0.5-1.2,2.4-0.5,1.9,0.7c-1.9,4.9-8.3,21.3-14.6,21.3
		c-2.5,0-4.5-2-4.2-3.9c0.7-6.2,2.7-14.9,4.9-21c-4.8,5.3-11.1,19.1-11.4,24.1c-0.1,0.7-0.5,0.8-1,0.8c-1.8,0-4.6-2-4.6-3.5
		c0.6-6.5,2.4-14.7,4.8-21.3c-4.9,5.3-11.1,19-11.5,24c0,0.7-0.4,0.8-0.9,0.8c-1.8,0-4.6-2-4.6-3.5
		C162.1,39.6,164.5,29.6,167.6,22.5z"/>
	<path class="st0" d="M211.1,43c0.1-0.1,0.1-0.3,0.1-0.5c-2.1,4.5-4.9,8.3-8.2,8.3c-2.9,0-4.5-1.9-4.8-4.5c-1-8,3.2-20.7,10.4-24.5
		c2.3-1.3,4.9,0.4,7.5,1.8c0.1-0.2,0.3-0.7,0.4-1c0.3-0.6,0.7-1,1.1-1c1.4,0,3.8,1.3,4.7,2.1c0.8,0.6-0.1,1.5-0.4,2.3
		c-2.4,6.4-4.2,14.9-5.2,20.3c-0.2,1.1,0.4,1.1,1,0.5c4.5-4.5,7.5-13,9.5-18c0.5-1.2,2.3-0.5,1.9,0.7c-1.9,4.9-8,21.3-14.3,21.3
		c-2.6,0-4.2-2.6-4-5C210.9,44.9,210.9,44,211.1,43z M214.5,27.5c0.2-0.7,0.4-1.3,0.7-1.9c-0.4-0.6-1-1-1.8-1
		c-5.1,0-8.9,12.6-9.4,18.9c-0.1,0.8-0.2,3.4,1,3.4C208.6,47,213.4,31,214.5,27.5z"/>
	<path class="st0" d="M228.7,22.5c0.2-0.6,0.7-1,1-1c1.5,0,3.9,1.3,4.8,2.1c0.7,0.6-0.1,1.5-0.4,2.3c-1.3,3.5-2.6,7.7-3.6,11.6
		c2.6-5.6,6.5-12.6,10-15.5c0.4-0.4,0.9-0.5,1.4-0.5c1,0,4.9,1.3,4.9,2.7c0,0.3-0.1,0.5-0.2,0.8c-0.3,0.6-0.5,1.2-0.8,1.8
		c-2.3,6.3-4.2,14.2-5.1,19.3c-0.2,1.1,0.3,1.2,1,0.5c4.5-4.5,7.8-13,9.7-18c0.5-1.2,2.3-0.5,1.9,0.7c-1.9,4.9-8.3,21.3-14.6,21.3
		c-2.6,0-4.5-2-4.2-3.9c0.7-6.2,2.7-14.9,4.9-21C234.5,31.2,228.4,45,228,50c0,0.7-0.4,0.8-0.9,0.8c-1.8,0-4.6-2-4.6-3.5
		C223.2,39.6,225.6,29.6,228.7,22.5z"/>
</g>
</svg>
